<svg xmlns="http://www.w3.org/2000/svg" viewBox="0 0 32 32" width="32" height="32">
    <!-- Trame de fond (Filigrane symbolique) -->
    <path d="M6 14 L26 14 M6 18 L26 18 M6 22 L26 22" stroke="#ffffff" stroke-width="1.5" stroke-linecap="round" opacity="0.25" />
    <path d="M10 6 L10 26 M14 6 L14 26 M18 6 L18 26" stroke="#ffffff" stroke-width="1.5" stroke-linecap="round" opacity="0.25" />
    
    <!-- Document arrière -->
    <path d="M10 6 h10 l6 6 v14 a2 2 0 0 1 -2 2 h-14 a2 2 0 0 1 -2 -2 v-18 a2 2 0 0 1 2 -2 z" fill="#1e293b" stroke="#64748b" stroke-width="2" stroke-linejoin="round"/>
    
    <!-- Document avant -->
    <path d="M6 10 h10 l6 6 v14 a2 2 0 0 1 -2 2 h-14 a2 2 0 0 1 -2 -2 v-18 a2 2 0 0 1 2 -2 z" fill="#1e293b" stroke="#00a3ff" stroke-width="2" stroke-linejoin="round"/>
    
    <!-- Lignes de texte symboliques -->
    <line x1="9" y1="15" x2="19" y2="15" stroke="#ffffff" stroke-width="1.5" stroke-linecap="round" opacity="0.9" />
    <line x1="9" y1="19" x2="17" y2="19" stroke="#ffffff" stroke-width="1.5" stroke-linecap="round" opacity="0.9" />
    <line x1="9" y1="23" x2="15" y2="23" stroke="#ffffff" stroke-width="1.5" stroke-linecap="round" opacity="0.9" />
    
    <!-- Sceau de sécurité / Badge -->
    <circle cx="19" cy="23" r="3.5" fill="#10b981" />
    <path d="M17.5 23 l1 1 l2 -2" fill="none" stroke="#ffffff" stroke-width="1.2" stroke-linecap="round" stroke-linejoin="round" />
</svg>
